<?xml version="1.0" encoding="UTF-8" standalone="no"?>
<!-- Created with Inkscape (http://www.inkscape.org/) -->

<svg
   width="500"
   height="500"
   viewBox="0 0 132.29166 132.29167"
   version="1.1"
   id="svg1"
   inkscape:version="1.3.2 (091e20ef0f, 2023-11-25)"
   sodipodi:docname="astrality-logo.svg"
   inkscape:export-filename="astrality-logo.png"
   inkscape:export-xdpi="96"
   inkscape:export-ydpi="96"
   xmlns:inkscape="http://www.inkscape.org/namespaces/inkscape"
   xmlns:sodipodi="http://sodipodi.sourceforge.net/DTD/sodipodi-0.dtd"
   xmlns="http://www.w3.org/2000/svg"
   xmlns:svg="http://www.w3.org/2000/svg">
  <sodipodi:namedview
     id="namedview1"
     pagecolor="#505050"
     bordercolor="#ffffff"
     borderopacity="1"
     inkscape:showpageshadow="0"
     inkscape:pageopacity="0"
     inkscape:pagecheckerboard="1"
     inkscape:deskcolor="#d1d1d1"
     inkscape:document-units="mm"
     inkscape:zoom="0.97134925"
     inkscape:cx="290.31782"
     inkscape:cy="377.31022"
     inkscape:window-width="1908"
     inkscape:window-height="975"
     inkscape:window-x="6"
     inkscape:window-y="6"
     inkscape:window-maximized="1"
     inkscape:current-layer="layer1" />
  <defs
     id="defs1">
    <radialGradient
       id="paint1_radial_2781_103"
       cx="0"
       cy="0"
       r="1"
       gradientUnits="userSpaceOnUse"
       gradientTransform="matrix(0,-41.999163,44.952172,0,66.352489,64.352065)">
      <stop
         stop-color="#866EFF"
         id="stop5" />
      <stop
         offset="1"
         stop-color="#9786ED"
         id="stop6" />
    </radialGradient>
  </defs>
  <g
     inkscape:label="Layer 1"
     inkscape:groupmode="layer"
     id="layer1">
    <path
       fill-rule="evenodd"
       clip-rule="evenodd"
       d="m 75.545648,103.92728 c 3.31327,9.66514 6.642533,22.08889 10.843782,37.76725 -4.201249,-15.67836 -7.530512,-28.10211 -9.493141,-38.12951 4.578575,-1.30211 8.866487,-3.46366 12.709081,-6.351197 4.106579,-3.084217 7.533187,-7.007072 10.155797,-11.394584 2.555943,-4.42631 4.345243,-9.384211 5.030563,-14.443181 0.69198,-4.89617 0.47198,-9.910332 -0.70933,-14.682772 9.64249,-3.296066 22.01825,-6.612 37.6126,-10.790583 -15.59035,4.177513 -27.96344,7.492915 -37.96191,9.46021 -1.29464,-4.693641 -3.5146,-9.175149 -6.525203,-13.134272 C 94.018611,38.151388 90.134697,34.657058 85.641444,32.062842 81.148201,29.46863 76.178963,27.851993 71.053736,27.128011 66.252499,26.54589 61.279265,26.814668 56.619358,27.992658 53.34742,18.381248 50.050154,6.0746921 45.902236,-9.4028666 c 4.14925,15.4804958 7.446518,27.7889186 9.418481,37.7493826 -4.846573,1.41424 -9.379814,3.755662 -13.301072,6.787866 -4.077251,3.190069 -7.437183,7.151591 -9.993133,11.577905 -2.489284,4.46498 -4.171917,9.394609 -4.790571,14.492243 -0.651987,4.815908 -0.303995,9.723274 0.913315,14.414912 -9.634476,3.289133 -21.9902298,6.60001 -37.5525863,10.769786 15.5690235,-4.171522 27.9287783,-7.483455 37.9192453,-9.451811 2.842611,9.558076 9.377147,17.959244 18.018311,22.860616 8.62516,5.067897 19.283614,6.614527 29.011422,4.129247 z m 1.275969,-0.74211 c 4.54658,-1.31704 8.774494,-3.560197 12.498419,-6.404817 3.93193,-3.094602 7.321191,-6.950398 9.770471,-11.348307 2.450623,-4.397913 4.055923,-9.193409 4.702583,-14.185311 0.57865,-4.685509 0.28799,-9.548748 -0.89732,-14.143191 -13.00374,4.550712 -20.834253,9.129948 -24.775505,15.955681 -4.007925,6.941194 -3.991923,16.205684 -1.298648,30.125945 z M 102.47444,55.605711 C 99.661167,46.336558 93.315962,38.195255 84.866792,33.404148 76.617624,28.555182 66.420493,27.080806 57.038015,29.209299 c 4.573244,13.115209 9.162483,21.003052 16.021016,24.962705 6.822528,3.93899 15.88901,3.990587 29.415409,1.433707 z M 55.560713,29.576359 c -4.654578,1.256377 -9.059822,3.401403 -12.930409,6.358007 -3.999923,3.055808 -7.349189,6.844664 -9.933139,11.165112 -2.517283,4.359245 -4.229248,9.183016 -4.942568,14.136119 -0.679986,4.721905 -0.42799,9.657271 0.66932,14.290119 13.586395,-4.663241 21.710237,-9.298618 25.748819,-16.29288 3.961255,-6.862931 3.990587,-15.997016 1.387977,-29.656477 z M 28.77991,76.885819 c 14.102387,-2.756616 23.456865,-2.804743 30.452727,1.234108 6.942533,4.007925 11.559773,12.040167 16.187676,25.443893 -4.753239,1.22479 -9.773134,1.60477 -14.634369,0.97546 -5.030568,-0.58 -9.959807,-2.26316 -14.318389,-4.780047 -4.321243,-2.58382 -8.243832,-6.011076 -11.299772,-10.010875 -2.913276,-3.812853 -5.0639,-8.241828 -6.387873,-12.862539 z"
       fill="url(#paint1_radial_2781_103)"
       id="path2"
       style="fill:url(#paint1_radial_2781_103);stroke-width:1.3333" />
  </g>
</svg>
